<svg xmlns="http://www.w3.org/2000/svg" xmlns:xlink="http://www.w3.org/1999/xlink" width="262pt" height="124pt" viewBox="0 0 261.53 124"><g id="graph0" class="graph" transform="scale(1 1) rotate(0) translate(4 120)"><title>%3</title><polygon fill="#fff" stroke="none" points="-4 4 -4 -120 257.533 -120 257.533 4 -4 4"/><g id="node1" class="node"><title>nw</title><ellipse cx="49.35" cy="-98" fill="none" stroke="gray" rx="49.201" ry="18"/><text x="49.35" y="-95" font-family="Helvetica,sans-Serif" font-size="10" text-anchor="middle">The Nightwatch</text></g><g id="node3" class="node"><title>oil</title><ellipse cx="117.35" cy="-18" fill="none" stroke="gray" rx="42.874" ry="18"/><text x="117.35" y="-15" font-family="Helvetica,sans-Serif" font-size="10" text-anchor="middle">oil on canvas</text></g><g id="edge1" class="edge"><title>nw-&gt;oil</title><path fill="none" stroke="gray" d="M63.7715,-80.4582C73.3018,-69.5265 85.9453,-55.0236 96.5567,-42.8517"/><polygon fill="gray" stroke="gray" points="99.25 -45.088 103.183 -35.251 93.974 -40.488 99.25 -45.088"/><text x="108.138" y="-55.6" font-family="Helvetica,sans-Serif" font-size="8" text-anchor="middle">has medium</text></g><g id="node2" class="node"><title>wb</title><ellipse cx="185.35" cy="-98" fill="none" stroke="gray" rx="68.365" ry="18"/><text x="185.35" y="-95" font-family="Helvetica,sans-Serif" font-size="10" text-anchor="middle">Woman with a Balance</text></g><g id="edge2" class="edge"><title>wb-&gt;oil</title><path fill="none" stroke="gray" d="M170.595,-80.0752C161.138,-69.2266 148.718,-54.9801 138.252,-42.9755"/><polygon fill="gray" stroke="gray" points="140.589 -40.33 131.38 -35.092 135.313 -44.93 140.589 -40.33"/><text x="176.138" y="-55.6" font-family="Helvetica,sans-Serif" font-size="8" text-anchor="middle">has medium</text></g></g></svg>