<svg xmlns="http://www.w3.org/2000/svg" xmlns:xlink="http://www.w3.org/1999/xlink" width="367pt" height="364pt" viewBox="0 0 367.21 364"><g id="graph0" class="graph" transform="scale(1 1) rotate(0) translate(4 360)"><title>%3</title><polygon fill="#fff" stroke="none" points="-4 4 -4 -360 363.215 -360 363.215 4 -4 4"/><g id="node1" class="node"><title>obj</title><ellipse cx="148.735" cy="-338" fill="none" stroke="gray" rx="148.97" ry="18"/><text x="148.735" y="-335" font-family="Helvetica,sans-Serif" font-size="10" text-anchor="middle">http://collection.britishmuseum.org/id/object/PPA82633</text></g><g id="node2" class="node"><title>object_type</title><ellipse cx="51.735" cy="-258" fill="none" stroke="gray" rx="38.537" ry="18"/><text x="51.735" y="-255" font-family="Helvetica,sans-Serif" font-size="10" text-anchor="middle">object_type</text></g><g id="edge1" class="edge"><title>obj-&gt;object_type</title><path fill="none" stroke="gray" d="M98.3951,-320.855C88.4182,-315.964 78.6502,-309.764 70.9106,-302 66.4004,-297.476 62.8568,-291.706 60.1099,-285.873"/><polygon fill="gray" stroke="gray" points="63.197 -284.17 56.209 -276.205 56.705 -286.789 63.197 -284.17"/><text x="108.647" y="-295.6" font-family="Helvetica,sans-Serif" font-size="8" text-anchor="middle">bmo:PX_object_type</text></g><g id="node4" class="node"><title>production</title><ellipse cx="148.735" cy="-258" fill="none" stroke="gray" rx="36.4" ry="18"/><text x="148.735" y="-255" font-family="Helvetica,sans-Serif" font-size="10" text-anchor="middle">production</text></g><g id="edge3" class="edge"><title>obj-&gt;production</title><path fill="none" stroke="gray" d="M148.735,-319.689C148.735,-309.894 148.735,-297.422 148.735,-286.335"/><polygon fill="gray" stroke="gray" points="152.235 -286.262 148.735 -276.262 145.235 -286.262 152.235 -286.262"/><text x="203.657" y="-295.6" font-family="Helvetica,sans-Serif" font-size="8" text-anchor="middle">ecrm:P108i_was_produced_by</text></g><g id="node8" class="node"><title>other</title><text x="281.735" y="-255" font-family="Helvetica,sans-Serif" font-size="10" text-anchor="middle">Other top-level object attributes</text></g><g id="edge7" class="edge"><title>obj-&gt;other</title><path fill="none" stroke="gray" d="M223.709,-322.337C236.677,-317.399 249.318,-310.804 259.735,-302 264.947,-297.595 269.068,-291.646 272.265,-285.579"/><polygon fill="gray" stroke="gray" points="275.598 -286.706 276.554 -276.154 269.227 -283.807 275.598 -286.706"/><text x="271.069" y="-295.6" font-family="Helvetica,sans-Serif" font-size="8" text-anchor="middle">...</text></g><g id="node3" class="node"><title>print</title><ellipse cx="51.735" cy="-178" fill="none" stroke="gray" rx="27" ry="18"/><text x="51.735" y="-175" font-family="Helvetica,sans-Serif" font-size="10" text-anchor="middle">print</text></g><g id="edge2" class="edge"><title>object_type-&gt;print</title><path fill="none" stroke="gray" d="M51.7348,-239.689C51.7348,-229.894 51.7348,-217.422 51.7348,-206.335"/><polygon fill="gray" stroke="gray" points="55.235 -206.262 51.735 -196.262 48.235 -206.262 55.235 -206.262"/><text x="77.75" y="-215.6" font-family="Helvetica,sans-Serif" font-size="8" text-anchor="middle">skos:prefLabel</text></g><g id="node5" class="node"><title>date</title><ellipse cx="134.735" cy="-178" fill="none" stroke="gray" rx="27" ry="18"/><text x="134.735" y="-175" font-family="Helvetica,sans-Serif" font-size="10" text-anchor="middle">date</text></g><g id="edge4" class="edge"><title>production-&gt;date</title><path fill="none" stroke="gray" d="M143.042,-240.075C141.328,-234.389 139.605,-227.974 138.481,-222 137.543,-217.015 136.839,-211.66 136.311,-206.48"/><polygon fill="gray" stroke="gray" points="139.778 -205.937 135.456 -196.264 132.803 -206.521 139.778 -205.937"/><text x="175.862" y="-215.6" font-family="Helvetica,sans-Serif" font-size="8" text-anchor="middle">ecrm:P9_consists_of</text></g><g id="node9" class="node"><title>other_prod</title><text x="234.735" y="-175" font-family="Helvetica,sans-Serif" font-size="10" text-anchor="middle">Other production info</text></g><g id="edge8" class="edge"><title>production-&gt;other_prod</title><path fill="none" stroke="gray" d="M176.351,-246.343C188.633,-240.562 202.579,-232.439 212.735,-222 217.34,-217.267 221.193,-211.376 224.322,-205.489"/><polygon fill="gray" stroke="gray" points="227.508 -206.94 228.646 -196.406 221.187 -203.931 227.508 -206.94"/><text x="222.069" y="-215.6" font-family="Helvetica,sans-Serif" font-size="8" text-anchor="middle">...</text></g><g id="node6" class="node"><title>timespan</title><ellipse cx="134.735" cy="-98" fill="none" stroke="gray" rx="32.829" ry="18"/><text x="134.735" y="-95" font-family="Helvetica,sans-Serif" font-size="10" text-anchor="middle">timespan</text></g><g id="edge5" class="edge"><title>date-&gt;timespan</title><path fill="none" stroke="gray" d="M134.735,-159.689C134.735,-149.894 134.735,-137.422 134.735,-126.335"/><polygon fill="gray" stroke="gray" points="138.235 -126.262 134.735 -116.262 131.235 -126.262 138.235 -126.262"/><text x="178.088" y="-135.6" font-family="Helvetica,sans-Serif" font-size="8" text-anchor="middle">ecrm:P4_has_time-span</text></g><g id="node7" class="node"><title>start_date</title><ellipse cx="66.735" cy="-18" fill="none" stroke="gray" rx="34.828" ry="18"/><text x="66.735" y="-15" font-family="Helvetica,sans-Serif" font-size="10" text-anchor="middle">start_date</text></g><g id="edge6" class="edge"><title>timespan-&gt;start_date</title><path fill="none" stroke="gray" d="M105.598,-89.5265C91.4682,-84.285 75.76,-75.6942 67.3129,-62 64.4467,-57.3534 63.1708,-51.8529 62.8105,-46.3654"/><polygon fill="gray" stroke="gray" points="66.317 -46.141 63.069 -36.057 59.319 -45.966 66.317 -46.141"/><text x="124.446" y="-55.6" font-family="Helvetica,sans-Serif" font-size="8" text-anchor="middle">ecrm:P82a_begin_of_the_begin</text></g><g id="node10" class="node"><title>other_date</title><text x="202.735" y="-15" font-family="Helvetica,sans-Serif" font-size="10" text-anchor="middle">End of begin, Start of end...</text></g><g id="edge9" class="edge"><title>timespan-&gt;other_date</title><path fill="none" stroke="gray" d="M155.643,-84.0943C164.163,-78.1192 173.652,-70.4665 180.735,-62 184.802,-57.138 188.386,-51.398 191.417,-45.7224"/><polygon fill="gray" stroke="gray" points="194.728 -46.918 195.983 -36.398 188.442 -43.839 194.728 -46.918"/><text x="190.069" y="-55.6" font-family="Helvetica,sans-Serif" font-size="8" text-anchor="middle">...</text></g></g></svg>