<svg xmlns="http://www.w3.org/2000/svg" xmlns:xlink="http://www.w3.org/1999/xlink" width="848" height="364pt" viewBox="0 0 636.3 364"><g id="graph0" class="graph" transform="scale(1 1) rotate(0) translate(4 360)"><title>%3</title><polygon fill="#fff" stroke="none" points="-4 4 -4 -360 632.301 -360 632.301 4 -4 4"/><g id="node1" class="node"><title>o</title><ellipse cx="274.27" cy="-338" fill="none" stroke="red" rx="53.359" ry="18"/><text x="274.27" y="-335" font-family="Helvetica,sans-Serif" font-size="10" text-anchor="middle">object/PPA82633</text></g><g id="node2" class="node"><title>th1</title><ellipse cx="40.27" cy="-258" fill="none" stroke="red" rx="40.042" ry="18"/><text x="40.27" y="-255" font-family="Helvetica,sans-Serif" font-size="10" text-anchor="middle">thes:x11409</text></g><g id="edge1" class="edge"><title>o-&gt;th1</title><path fill="none" stroke="red" d="M224.341,-331.342C190.446,-326.351 145.117,-317.397 107.454,-302 93.6639,-296.363 79.5997,-287.87 67.927,-279.917"/><polygon fill="red" stroke="red" points="69.704 -276.888 59.511 -273.997 65.677 -282.613 69.704 -276.888"/><text x="147.178" y="-295.6" font-family="Helvetica,sans-Serif" font-size="8" text-anchor="middle">ecrm:p45_consists_of</text></g><g id="node4" class="node"><title>dep</title><ellipse cx="172.27" cy="-258" fill="none" stroke="red" rx="74.148" ry="18"/><text x="172.27" y="-255" font-family="Helvetica,sans-Serif" font-size="10" text-anchor="middle">person-institution/147800</text></g><g id="edge3" class="edge"><title>o-&gt;dep</title><path fill="none" stroke="red" d="M235.65,-325.351C222.058,-319.869 207.403,-312.234 196.239,-302 191.195,-297.376 186.961,-291.439 183.525,-285.462"/><polygon fill="red" stroke="red" points="186.46 -283.516 178.779 -276.219 180.234 -286.714 186.46 -283.516"/><text x="228.286" y="-295.6" font-family="Helvetica,sans-Serif" font-size="8" text-anchor="middle">ecrm:P62_depicts</text></g><g id="node6" class="node"><title>etc</title><ellipse cx="274.27" cy="-18" fill="none" stroke="gray" rx="27" ry="18"/><text x="274.27" y="-15" font-family="Helvetica,sans-Serif" font-size="10" text-anchor="middle">etc...</text></g><g id="edge10" class="edge"><title>o-&gt;etc</title><path fill="none" stroke="gray" d="M274.27,-319.958C274.27,-304.156 274.27,-279.99 274.27,-259 274.27,-259 274.27,-259 274.27,-97 274.27,-80.1099 274.27,-61.1626 274.27,-46.172"/><polygon fill="gray" stroke="gray" points="277.77 -46.042 274.27 -36.042 270.77 -46.042 277.77 -46.042"/></g><g id="node7" class="node"><title>own</title><ellipse cx="395.27" cy="-258" fill="none" stroke="red" rx="93.118" ry="18"/><text x="395.27" y="-255" font-family="Helvetica,sans-Serif" font-size="10" text-anchor="middle">thesIdentifier:the-british-museum</text></g><g id="edge5" class="edge"><title>o-&gt;own</title><path fill="none" stroke="red" d="M297.887,-321.776C315.86,-310.19 340.856,-294.077 361.023,-281.077"/><polygon fill="red" stroke="red" points="363.112 -283.894 369.621 -275.534 359.319 -278.011 363.112 -283.894"/><text x="392.854" y="-295.6" font-family="Helvetica,sans-Serif" font-size="8" text-anchor="middle">ecrm:P54_has_current_owner</text></g><g id="node8" class="node"><title>con</title><ellipse cx="524.27" cy="-178" fill="none" stroke="red" rx="80.14" ry="18"/><text x="524.27" y="-175" font-family="Helvetica,sans-Serif" font-size="10" text-anchor="middle">object/PPA82633/concept/1</text></g><g id="edge6" class="edge"><title>o-&gt;con</title><path fill="none" stroke="red" d="M322.863,-330.474C381.749,-321.472 475.782,-303.207 497.27,-276 513.047,-256.024 519.612,-227.389 522.339,-206.409"/><polygon fill="red" stroke="red" points="525.845 -206.541 523.445 -196.222 518.886 -205.786 525.845 -206.541"/><text x="548.839" y="-255.6" font-family="Helvetica,sans-Serif" font-size="8" text-anchor="middle">ecrm:P128_carries</text></g><g id="node3" class="node"><title>th1lab</title><ellipse cx="40.27" cy="-178" fill="none" stroke="gray" rx="27" ry="18"/><text x="40.27" y="-175" font-family="Helvetica,sans-Serif" font-size="10" text-anchor="middle">paper</text></g><g id="edge2" class="edge"><title>th1-&gt;th1lab</title><path fill="none" stroke="gray" d="M40.2702,-239.689C40.2702,-229.894 40.2702,-217.422 40.2702,-206.335"/><polygon fill="gray" stroke="gray" points="43.77 -206.262 40.27 -196.262 36.77 -206.262 43.77 -206.262"/><text x="66.286" y="-215.6" font-family="Helvetica,sans-Serif" font-size="8" text-anchor="middle">skos:prefLabel</text></g><g id="node5" class="node"><title>deplab</title><ellipse cx="172.27" cy="-178" fill="none" stroke="gray" rx="66.854" ry="18"/><text x="172.27" y="-175" font-family="Helvetica,sans-Serif" font-size="10" text-anchor="middle">Julius Caesar Scaliger</text></g><g id="edge4" class="edge"><title>dep-&gt;deplab</title><path fill="none" stroke="gray" d="M172.27,-239.689C172.27,-229.894 172.27,-217.422 172.27,-206.335"/><polygon fill="gray" stroke="gray" points="175.77 -206.262 172.27 -196.262 168.77 -206.262 175.77 -206.262"/><text x="198.286" y="-215.6" font-family="Helvetica,sans-Serif" font-size="8" text-anchor="middle">skos:prefLabel</text></g><g id="node9" class="node"><title>contype</title><ellipse cx="431.27" cy="-98" fill="none" stroke="gray" rx="85.868" ry="18"/><text x="431.27" y="-95" font-family="Helvetica,sans-Serif" font-size="10" text-anchor="middle">ecrm:E73_Information_Object</text></g><g id="edge7" class="edge"><title>con-&gt;contype</title><path fill="none" stroke="gray" d="M504.547,-160.458C491.321,-149.365 473.71,-134.595 459.068,-122.314"/><polygon fill="gray" stroke="gray" points="461.196 -119.531 451.285 -115.787 456.698 -124.895 461.196 -119.531"/><text x="494.61" y="-135.6" font-family="Helvetica,sans-Serif" font-size="8" text-anchor="middle">rdf:type</text></g><g id="node10" class="node"><title>concon</title><ellipse cx="576.27" cy="-98" fill="none" stroke="gray" rx="40.893" ry="18"/><text x="576.27" y="-95" font-family="Helvetica,sans-Serif" font-size="10" text-anchor="middle">thes:x12440</text></g><g id="edge8" class="edge"><title>con-&gt;concon</title><path fill="none" stroke="gray" d="M535.553,-160.075C542.599,-149.507 551.795,-135.713 559.664,-123.91"/><polygon fill="gray" stroke="gray" points="562.73 -125.619 565.365 -115.357 556.906 -121.736 562.73 -125.619"/><text x="588.96" y="-135.6" font-family="Helvetica,sans-Serif" font-size="8" text-anchor="middle">ecrm:P129_is_about</text></g><g id="node11" class="node"><title>conlab</title><ellipse cx="576.27" cy="-18" fill="none" stroke="gray" rx="33.894" ry="18"/><text x="576.27" y="-15" font-family="Helvetica,sans-Serif" font-size="10" text-anchor="middle">academic</text></g><g id="edge9" class="edge"><title>concon-&gt;conlab</title><path fill="none" stroke="gray" d="M576.27,-79.6893C576.27,-69.8938 576.27,-57.4218 576.27,-46.335"/><polygon fill="gray" stroke="gray" points="579.77 -46.262 576.27 -36.262 572.77 -46.262 579.77 -46.262"/><text x="602.286" y="-55.6" font-family="Helvetica,sans-Serif" font-size="8" text-anchor="middle">skos:prefLabel</text></g></g></svg>