<svg xmlns="http://www.w3.org/2000/svg" xmlns:xlink="http://www.w3.org/1999/xlink" width="584" height="212pt" viewBox="0 0 437.7 212"><g id="graph0" class="graph" transform="scale(1 1) rotate(0) translate(4 208)"><title>%3</title><polygon fill="#fff" stroke="none" points="-4 4 -4 -208 433.703 -208 433.703 4 -4 4"/><g id="node1" class="node"><title>nw</title><ellipse cx="132" cy="-186" fill="none" stroke="red" rx="49.201" ry="18"/><text x="132" y="-183" font-family="Helvetica,sans-Serif" font-size="10" text-anchor="middle">The Nightwatch</text></g><g id="node2" class="node"><title>rr</title><ellipse cx="132" cy="-98" fill="none" stroke="red" rx="60.022" ry="18"/><text x="132" y="-95" font-family="Helvetica,sans-Serif" font-size="10" text-anchor="middle">Rembrandt van Rijn</text></g><g id="edge1" class="edge"><title>nw-&gt;rr</title><path fill="none" stroke="orange" d="M132,-167.597C132,-155.746 132,-139.817 132,-126.292"/><polygon fill="orange" stroke="orange" points="135.5 -126.084 132 -116.084 128.5 -126.084 135.5 -126.084"/><text x="150.678" y="-143.6" font-family="Helvetica,sans-Serif" font-size="8" text-anchor="middle">was</text><text x="150.678" y="-135.6" font-family="Helvetica,sans-Serif" font-size="8" text-anchor="middle">created by</text></g><g id="node5" class="node"><title>oil</title><ellipse cx="253" cy="-98" fill="none" stroke="gray" rx="42.874" ry="18"/><text x="253" y="-95" font-family="Helvetica,sans-Serif" font-size="10" text-anchor="middle">oil on canvas</text></g><g id="edge3" class="edge"><title>nw-&gt;oil</title><path fill="none" stroke="gray" d="M153.632,-169.625C173.196,-155.72 202.162,-135.133 223.779,-119.768"/><polygon fill="gray" stroke="gray" points="225.837 -122.6 231.96 -113.954 221.781 -116.894 225.837 -122.6"/><text x="225.787" y="-139.6" font-family="Helvetica,sans-Serif" font-size="8" text-anchor="middle">has medium</text></g><g id="node7" class="node"><title>nwd</title><ellipse cx="27" cy="-98" fill="none" stroke="gray" rx="27" ry="18"/><text x="27" y="-95" font-family="Helvetica,sans-Serif" font-size="10" text-anchor="middle">1642</text></g><g id="edge2" class="edge"><title>nw-&gt;nwd</title><path fill="none" stroke="gray" d="M112.741,-169.226C95.413,-155.034 69.877,-134.118 51.1799,-118.804"/><polygon fill="gray" stroke="gray" points="53.331 -116.043 43.377 -112.414 48.896 -121.458 53.331 -116.043"/><text x="106.566" y="-143.6" font-family="Helvetica,sans-Serif" font-size="8" text-anchor="middle">was</text><text x="106.566" y="-135.6" font-family="Helvetica,sans-Serif" font-size="8" text-anchor="middle">created in</text></g><g id="node6" class="node"><title>d</title><ellipse cx="263" cy="-18" fill="none" stroke="orange" rx="27" ry="18"/><text x="263" y="-15" font-family="Helvetica,sans-Serif" font-size="10" text-anchor="middle">Dutch</text></g><g id="edge5" class="edge"><title>rr-&gt;d</title><path fill="none" stroke="orange" d="M157.881,-81.5897C180.033,-68.4005 211.867,-49.4456 234.691,-35.8559"/><polygon fill="orange" stroke="orange" points="236.761 -38.697 243.563 -30.573 233.18 -32.682 236.761 -38.697"/><text x="227.572" y="-55.6" font-family="Helvetica,sans-Serif" font-size="8" text-anchor="middle">has nationality</text></g><g id="node8" class="node"><title>rrb</title><ellipse cx="132" cy="-18" fill="none" stroke="gray" rx="27" ry="18"/><text x="132" y="-15" font-family="Helvetica,sans-Serif" font-size="10" text-anchor="middle">1606</text></g><g id="edge4" class="edge"><title>rr-&gt;rrb</title><path fill="none" stroke="gray" d="M132,-79.6893C132,-69.8938 132,-57.4218 132,-46.335"/><polygon fill="gray" stroke="gray" points="135.5 -46.262 132 -36.262 128.5 -46.262 135.5 -46.262"/><text x="152.455" y="-55.6" font-family="Helvetica,sans-Serif" font-size="8" text-anchor="middle">was born in</text></g><g id="node3" class="node"><title>jv</title><ellipse cx="372" cy="-98" fill="none" stroke="red" rx="57.908" ry="18"/><text x="372" y="-95" font-family="Helvetica,sans-Serif" font-size="10" text-anchor="middle">Johannes Vermeer</text></g><g id="edge6" class="edge"><title>jv-&gt;d</title><path fill="none" stroke="orange" d="M349.942,-81.2155C332.328,-68.6108 307.605,-50.9191 289.023,-37.6222"/><polygon fill="orange" stroke="orange" points="290.879 -34.646 280.71 -31.673 286.805 -40.339 290.879 -34.646"/><text x="345.572" y="-55.6" font-family="Helvetica,sans-Serif" font-size="8" text-anchor="middle">has nationality</text></g><g id="node4" class="node"><title>wb</title><ellipse cx="277" cy="-186" fill="none" stroke="red" rx="68.365" ry="18"/><text x="277" y="-183" font-family="Helvetica,sans-Serif" font-size="10" text-anchor="middle">Woman with a Balance</text></g><g id="edge7" class="edge"><title>wb-&gt;jv</title><path fill="none" stroke="orange" d="M295.278,-168.646C301.824,-162.776 309.251,-156.101 316,-150 325.983,-140.975 336.934,-131.015 346.484,-122.31"/><polygon fill="orange" stroke="orange" points="349.095 -124.666 354.124 -115.341 344.377 -119.494 349.095 -124.666"/><text x="350.678" y="-143.6" font-family="Helvetica,sans-Serif" font-size="8" text-anchor="middle">was</text><text x="350.678" y="-135.6" font-family="Helvetica,sans-Serif" font-size="8" text-anchor="middle">created by</text></g><g id="edge8" class="edge"><title>wb-&gt;oil</title><path fill="none" stroke="gray" d="M272.258,-168.009C268.905,-155.995 264.342,-139.641 260.498,-125.869"/><polygon fill="gray" stroke="gray" points="263.791 -124.647 257.732 -115.956 257.049 -126.528 263.791 -124.647"/><text x="289.787" y="-139.6" font-family="Helvetica,sans-Serif" font-size="8" text-anchor="middle">has medium</text></g></g></svg>